# Tiled2Unity generated file. Do not modify by hand.
# Wavefront file for 'Map01_mesh_0001.obj'

# Vertices (Count = 728)
v -126 -144 0
v -144 -144 0
v -144 -126 0
v -126 -126 0
v -144 -144 0
v -162 -144 0
v -162 -126 0
v -144 -126 0
v -162 -144 0
v -180 -144 0
v -180 -126 0
v -162 -126 0
v -180 -144 0
v -198 -144 0
v -198 -126 0
v -180 -126 0
v -198 -144 0
v -216 -144 0
v -216 -126 0
v -198 -126 0
v -216 -144 0
v -234 -144 0
v -234 -126 0
v -216 -126 0
v -234 -144 0
v -252 -144 0
v -252 -126 0
v -234 -126 0
v -252 -144 0
v -270 -144 0
v -270 -126 0
v -252 -126 0
v -270 -144 0
v -288 -144 0
v -288 -126 0
v -270 -126 0
v -288 -144 0
v -306 -144 0
v -306 -126 0
v -288 -126 0
v -306 -144 0
v -324 -144 0
v -324 -126 0
v -306 -126 0
v -324 -144 0
v -342 -144 0
v -342 -126 0
v -324 -126 0
v -342 -144 0
v -360 -144 0
v -360 -126 0
v -342 -126 0
v -360 -144 0
v -378 -144 0
v -378 -126 0
v -360 -126 0
v -378 -144 0
v -396 -144 0
v -396 -126 0
v -378 -126 0
v -396 -144 0
v -414 -144 0
v -414 -126 0
v -396 -126 0
v -126 -162 0
v -144 -162 0
v -144 -144 0
v -126 -144 0
v -396 -162 0
v -414 -162 0
v -414 -144 0
v -396 -144 0
v -126 -180 0
v -144 -180 0
v -144 -162 0
v -126 -162 0
v -396 -180 0
v -414 -180 0
v -414 -162 0
v -396 -162 0
v -126 -198 0
v -144 -198 0
v -144 -180 0
v -126 -180 0
v -396 -198 0
v -414 -198 0
v -414 -180 0
v -396 -180 0
v -126 -216 0
v -144 -216 0
v -144 -198 0
v -126 -198 0
v -396 -216 0
v -414 -216 0
v -414 -198 0
v -396 -198 0
v -90 -234 0
v -108 -234 0
v -108 -216 0
v -90 -216 0
v -108 -234 0
v -126 -234 0
v -126 -216 0
v -108 -216 0
v -126 -234 0
v -144 -234 0
v -144 -216 0
v -126 -216 0
v -144 -234 0
v -162 -234 0
v -162 -216 0
v -144 -216 0
v -162 -234 0
v -180 -234 0
v -180 -216 0
v -162 -216 0
v -180 -234 0
v -198 -234 0
v -198 -216 0
v -180 -216 0
v -198 -234 0
v -216 -234 0
v -216 -216 0
v -198 -216 0
v -216 -234 0
v -234 -234 0
v -234 -216 0
v -216 -216 0
v -234 -234 0
v -252 -234 0
v -252 -216 0
v -234 -216 0
v -252 -234 0
v -270 -234 0
v -270 -216 0
v -252 -216 0
v -270 -234 0
v -288 -234 0
v -288 -216 0
v -270 -216 0
v -396 -234 0
v -414 -234 0
v -414 -216 0
v -396 -216 0
v -90 -252 0
v -108 -252 0
v -108 -234 0
v -90 -234 0
v -396 -252 0
v -414 -252 0
v -414 -234 0
v -396 -234 0
v -90 -270 0
v -108 -270 0
v -108 -252 0
v -90 -252 0
v -396 -270 0
v -414 -270 0
v -414 -252 0
v -396 -252 0
v -90 -288 0
v -108 -288 0
v -108 -270 0
v -90 -270 0
v -324 -288 0
v -342 -288 0
v -342 -270 0
v -324 -270 0
v -342 -288 0
v -360 -288 0
v -360 -270 0
v -342 -270 0
v -360 -288 0
v -378 -288 0
v -378 -270 0
v -360 -270 0
v -378 -288 0
v -396 -288 0
v -396 -270 0
v -378 -270 0
v -396 -288 0
v -414 -288 0
v -414 -270 0
v -396 -270 0
v -90 -306 0
v -108 -306 0
v -108 -288 0
v -90 -288 0
v -324 -306 0
v -342 -306 0
v -342 -288 0
v -324 -288 0
v -342 -306 0
v -360 -306 0
v -360 -288 0
v -342 -288 0
v -360 -306 0
v -378 -306 0
v -378 -288 0
v -360 -288 0
v -378 -306 0
v -396 -306 0
v -396 -288 0
v -378 -288 0
v -396 -306 0
v -414 -306 0
v -414 -288 0
v -396 -288 0
v -90 -324 0
v -108 -324 0
v -108 -306 0
v -90 -306 0
v -108 -324 0
v -126 -324 0
v -126 -306 0
v -108 -306 0
v -126 -324 0
v -144 -324 0
v -144 -306 0
v -126 -306 0
v -144 -324 0
v -162 -324 0
v -162 -306 0
v -144 -306 0
v -216 -324 0
v -234 -324 0
v -234 -306 0
v -216 -306 0
v -234 -324 0
v -252 -324 0
v -252 -306 0
v -234 -306 0
v -252 -324 0
v -270 -324 0
v -270 -306 0
v -252 -306 0
v -324 -324 0
v -342 -324 0
v -342 -306 0
v -324 -306 0
v -342 -324 0
v -360 -324 0
v -360 -306 0
v -342 -306 0
v -360 -324 0
v -378 -324 0
v -378 -306 0
v -360 -306 0
v -378 -324 0
v -396 -324 0
v -396 -306 0
v -378 -306 0
v -396 -324 0
v -414 -324 0
v -414 -306 0
v -396 -306 0
v -90 -342 0
v -108 -342 0
v -108 -324 0
v -90 -324 0
v -324 -342 0
v -342 -342 0
v -342 -324 0
v -324 -324 0
v -342 -342 0
v -360 -342 0
v -360 -324 0
v -342 -324 0
v -360 -342 0
v -378 -342 0
v -378 -324 0
v -360 -324 0
v -378 -342 0
v -396 -342 0
v -396 -324 0
v -378 -324 0
v -396 -342 0
v -414 -342 0
v -414 -324 0
v -396 -324 0
v -90 -360 0
v -108 -360 0
v -108 -342 0
v -90 -342 0
v -324 -360 0
v -342 -360 0
v -342 -342 0
v -324 -342 0
v -342 -360 0
v -360 -360 0
v -360 -342 0
v -342 -342 0
v -360 -360 0
v -378 -360 0
v -378 -342 0
v -360 -342 0
v -378 -360 0
v -396 -360 0
v -396 -342 0
v -378 -342 0
v -396 -360 0
v -414 -360 0
v -414 -342 0
v -396 -342 0
v -90 -378 0
v -108 -378 0
v -108 -360 0
v -90 -360 0
v -252 -378 0
v -270 -378 0
v -270 -360 0
v -252 -360 0
v -270 -378 0
v -288 -378 0
v -288 -360 0
v -270 -360 0
v -288 -378 0
v -306 -378 0
v -306 -360 0
v -288 -360 0
v -306 -378 0
v -324 -378 0
v -324 -360 0
v -306 -360 0
v -324 -378 0
v -342 -378 0
v -342 -360 0
v -324 -360 0
v -342 -378 0
v -360 -378 0
v -360 -360 0
v -342 -360 0
v -360 -378 0
v -378 -378 0
v -378 -360 0
v -360 -360 0
v -378 -378 0
v -396 -378 0
v -396 -360 0
v -378 -360 0
v -396 -378 0
v -414 -378 0
v -414 -360 0
v -396 -360 0
v 0 -396 0
v -18 -396 0
v -18 -378 0
v 0 -378 0
v -18 -396 0
v -36 -396 0
v -36 -378 0
v -18 -378 0
v -36 -396 0
v -54 -396 0
v -54 -378 0
v -36 -378 0
v -54 -396 0
v -72 -396 0
v -72 -378 0
v -54 -378 0
v -72 -396 0
v -90 -396 0
v -90 -378 0
v -72 -378 0
v -90 -396 0
v -108 -396 0
v -108 -378 0
v -90 -378 0
v -108 -396 0
v -126 -396 0
v -126 -378 0
v -108 -378 0
v -126 -396 0
v -144 -396 0
v -144 -378 0
v -126 -378 0
v -144 -396 0
v -162 -396 0
v -162 -378 0
v -144 -378 0
v -162 -396 0
v -180 -396 0
v -180 -378 0
v -162 -378 0
v -180 -396 0
v -198 -396 0
v -198 -378 0
v -180 -378 0
v -198 -396 0
v -216 -396 0
v -216 -378 0
v -198 -378 0
v -216 -396 0
v -234 -396 0
v -234 -378 0
v -216 -378 0
v -234 -396 0
v -252 -396 0
v -252 -378 0
v -234 -378 0
v -252 -396 0
v -270 -396 0
v -270 -378 0
v -252 -378 0
v -270 -396 0
v -288 -396 0
v -288 -378 0
v -270 -378 0
v -288 -396 0
v -306 -396 0
v -306 -378 0
v -288 -378 0
v -306 -396 0
v -324 -396 0
v -324 -378 0
v -306 -378 0
v -324 -396 0
v -342 -396 0
v -342 -378 0
v -324 -378 0
v -342 -396 0
v -360 -396 0
v -360 -378 0
v -342 -378 0
v -360 -396 0
v -378 -396 0
v -378 -378 0
v -360 -378 0
v -378 -396 0
v -396 -396 0
v -396 -378 0
v -378 -378 0
v -396 -396 0
v -414 -396 0
v -414 -378 0
v -396 -378 0
v -414 -396 0
v -432 -396 0
v -432 -378 0
v -414 -378 0
v -432 -396 0
v -450 -396 0
v -450 -378 0
v -432 -378 0
v -450 -396 0
v -468 -396 0
v -468 -378 0
v -450 -378 0
v -468 -396 0
v -486 -396 0
v -486 -378 0
v -468 -378 0
v -486 -396 0
v -504 -396 0
v -504 -378 0
v -486 -378 0
v -504 -396 0
v -522 -396 0
v -522 -378 0
v -504 -378 0
v -522 -396 0
v -540 -396 0
v -540 -378 0
v -522 -378 0
v -540 -396 0
v -558 -396 0
v -558 -378 0
v -540 -378 0
v -558 -396 0
v -576 -396 0
v -576 -378 0
v -558 -378 0
v 0 -414 0
v -18 -414 0
v -18 -396 0
v 0 -396 0
v -18 -414 0
v -36 -414 0
v -36 -396 0
v -18 -396 0
v -36 -414 0
v -54 -414 0
v -54 -396 0
v -36 -396 0
v -54 -414 0
v -72 -414 0
v -72 -396 0
v -54 -396 0
v -72 -414 0
v -90 -414 0
v -90 -396 0
v -72 -396 0
v -90 -414 0
v -108 -414 0
v -108 -396 0
v -90 -396 0
v -108 -414 0
v -126 -414 0
v -126 -396 0
v -108 -396 0
v -126 -414 0
v -144 -414 0
v -144 -396 0
v -126 -396 0
v -144 -414 0
v -162 -414 0
v -162 -396 0
v -144 -396 0
v -162 -414 0
v -180 -414 0
v -180 -396 0
v -162 -396 0
v -180 -414 0
v -198 -414 0
v -198 -396 0
v -180 -396 0
v -198 -414 0
v -216 -414 0
v -216 -396 0
v -198 -396 0
v -216 -414 0
v -234 -414 0
v -234 -396 0
v -216 -396 0
v -234 -414 0
v -252 -414 0
v -252 -396 0
v -234 -396 0
v -252 -414 0
v -270 -414 0
v -270 -396 0
v -252 -396 0
v -270 -414 0
v -288 -414 0
v -288 -396 0
v -270 -396 0
v -288 -414 0
v -306 -414 0
v -306 -396 0
v -288 -396 0
v -306 -414 0
v -324 -414 0
v -324 -396 0
v -306 -396 0
v -324 -414 0
v -342 -414 0
v -342 -396 0
v -324 -396 0
v -342 -414 0
v -360 -414 0
v -360 -396 0
v -342 -396 0
v -360 -414 0
v -378 -414 0
v -378 -396 0
v -360 -396 0
v -378 -414 0
v -396 -414 0
v -396 -396 0
v -378 -396 0
v -396 -414 0
v -414 -414 0
v -414 -396 0
v -396 -396 0
v -414 -414 0
v -432 -414 0
v -432 -396 0
v -414 -396 0
v -432 -414 0
v -450 -414 0
v -450 -396 0
v -432 -396 0
v -450 -414 0
v -468 -414 0
v -468 -396 0
v -450 -396 0
v -468 -414 0
v -486 -414 0
v -486 -396 0
v -468 -396 0
v -486 -414 0
v -504 -414 0
v -504 -396 0
v -486 -396 0
v -504 -414 0
v -522 -414 0
v -522 -396 0
v -504 -396 0
v -522 -414 0
v -540 -414 0
v -540 -396 0
v -522 -396 0
v -540 -414 0
v -558 -414 0
v -558 -396 0
v -540 -396 0
v -558 -414 0
v -576 -414 0
v -576 -396 0
v -558 -396 0
v 0 -432 0
v -18 -432 0
v -18 -414 0
v 0 -414 0
v -18 -432 0
v -36 -432 0
v -36 -414 0
v -18 -414 0
v -36 -432 0
v -54 -432 0
v -54 -414 0
v -36 -414 0
v -54 -432 0
v -72 -432 0
v -72 -414 0
v -54 -414 0
v -72 -432 0
v -90 -432 0
v -90 -414 0
v -72 -414 0
v -90 -432 0
v -108 -432 0
v -108 -414 0
v -90 -414 0
v -108 -432 0
v -126 -432 0
v -126 -414 0
v -108 -414 0
v -126 -432 0
v -144 -432 0
v -144 -414 0
v -126 -414 0
v -144 -432 0
v -162 -432 0
v -162 -414 0
v -144 -414 0
v -162 -432 0
v -180 -432 0
v -180 -414 0
v -162 -414 0
v -180 -432 0
v -198 -432 0
v -198 -414 0
v -180 -414 0
v -198 -432 0
v -216 -432 0
v -216 -414 0
v -198 -414 0
v -216 -432 0
v -234 -432 0
v -234 -414 0
v -216 -414 0
v -234 -432 0
v -252 -432 0
v -252 -414 0
v -234 -414 0
v -252 -432 0
v -270 -432 0
v -270 -414 0
v -252 -414 0
v -270 -432 0
v -288 -432 0
v -288 -414 0
v -270 -414 0
v -288 -432 0
v -306 -432 0
v -306 -414 0
v -288 -414 0
v -306 -432 0
v -324 -432 0
v -324 -414 0
v -306 -414 0
v -324 -432 0
v -342 -432 0
v -342 -414 0
v -324 -414 0
v -342 -432 0
v -360 -432 0
v -360 -414 0
v -342 -414 0
v -360 -432 0
v -378 -432 0
v -378 -414 0
v -360 -414 0
v -378 -432 0
v -396 -432 0
v -396 -414 0
v -378 -414 0
v -396 -432 0
v -414 -432 0
v -414 -414 0
v -396 -414 0
v -414 -432 0
v -432 -432 0
v -432 -414 0
v -414 -414 0
v -432 -432 0
v -450 -432 0
v -450 -414 0
v -432 -414 0
v -450 -432 0
v -468 -432 0
v -468 -414 0
v -450 -414 0
v -468 -432 0
v -486 -432 0
v -486 -414 0
v -468 -414 0
v -486 -432 0
v -504 -432 0
v -504 -414 0
v -486 -414 0
v -504 -432 0
v -522 -432 0
v -522 -414 0
v -504 -414 0
v -522 -432 0
v -540 -432 0
v -540 -414 0
v -522 -414 0
v -540 -432 0
v -558 -432 0
v -558 -414 0
v -540 -414 0
v -558 -432 0
v -576 -432 0
v -576 -414 0
v -558 -414 0

# Texture cooridinates (Count = 10)
vt 0.35 0.6666666
vt 0.4 0.6666666
vt 0.4 0.7777778
vt 0.35 0.7777778
vt 0.65 0.6666666
vt 0.7 0.6666666
vt 0.7 0.7777778
vt 0.65 0.7777778
vt 0.65 0.5555556
vt 0.7 0.5555556

# Normal
vn 0 0 -1

# Mesh description
g Map01_mesh_0001

# Faces
f 1/1/1 2/2/1 3/3/1 4/4/1
f 5/1/1 6/2/1 7/3/1 8/4/1
f 9/1/1 10/2/1 11/3/1 12/4/1
f 13/1/1 14/2/1 15/3/1 16/4/1
f 17/1/1 18/2/1 19/3/1 20/4/1
f 21/1/1 22/2/1 23/3/1 24/4/1
f 25/1/1 26/2/1 27/3/1 28/4/1
f 29/1/1 30/2/1 31/3/1 32/4/1
f 33/1/1 34/2/1 35/3/1 36/4/1
f 37/1/1 38/2/1 39/3/1 40/4/1
f 41/1/1 42/2/1 43/3/1 44/4/1
f 45/1/1 46/2/1 47/3/1 48/4/1
f 49/1/1 50/2/1 51/3/1 52/4/1
f 53/1/1 54/2/1 55/3/1 56/4/1
f 57/1/1 58/2/1 59/3/1 60/4/1
f 61/1/1 62/2/1 63/3/1 64/4/1
f 65/1/1 66/2/1 67/3/1 68/4/1
f 69/1/1 70/2/1 71/3/1 72/4/1
f 73/1/1 74/2/1 75/3/1 76/4/1
f 77/1/1 78/2/1 79/3/1 80/4/1
f 81/1/1 82/2/1 83/3/1 84/4/1
f 85/1/1 86/2/1 87/3/1 88/4/1
f 89/1/1 90/2/1 91/3/1 92/4/1
f 93/1/1 94/2/1 95/3/1 96/4/1
f 97/1/1 98/2/1 99/3/1 100/4/1
f 101/1/1 102/2/1 103/3/1 104/4/1
f 105/1/1 106/2/1 107/3/1 108/4/1
f 109/1/1 110/2/1 111/3/1 112/4/1
f 113/1/1 114/2/1 115/3/1 116/4/1
f 117/1/1 118/2/1 119/3/1 120/4/1
f 121/1/1 122/2/1 123/3/1 124/4/1
f 125/1/1 126/2/1 127/3/1 128/4/1
f 129/1/1 130/2/1 131/3/1 132/4/1
f 133/1/1 134/2/1 135/3/1 136/4/1
f 137/1/1 138/2/1 139/3/1 140/4/1
f 141/1/1 142/2/1 143/3/1 144/4/1
f 145/1/1 146/2/1 147/3/1 148/4/1
f 149/1/1 150/2/1 151/3/1 152/4/1
f 153/1/1 154/2/1 155/3/1 156/4/1
f 157/1/1 158/2/1 159/3/1 160/4/1
f 161/1/1 162/2/1 163/3/1 164/4/1
f 165/1/1 166/2/1 167/3/1 168/4/1
f 169/1/1 170/2/1 171/3/1 172/4/1
f 173/1/1 174/2/1 175/3/1 176/4/1
f 177/1/1 178/2/1 179/3/1 180/4/1
f 181/1/1 182/2/1 183/3/1 184/4/1
f 185/1/1 186/2/1 187/3/1 188/4/1
f 189/1/1 190/2/1 191/3/1 192/4/1
f 193/1/1 194/2/1 195/3/1 196/4/1
f 197/1/1 198/2/1 199/3/1 200/4/1
f 201/1/1 202/2/1 203/3/1 204/4/1
f 205/1/1 206/2/1 207/3/1 208/4/1
f 209/1/1 210/2/1 211/3/1 212/4/1
f 213/1/1 214/2/1 215/3/1 216/4/1
f 217/1/1 218/2/1 219/3/1 220/4/1
f 221/1/1 222/2/1 223/3/1 224/4/1
f 225/1/1 226/2/1 227/3/1 228/4/1
f 229/1/1 230/2/1 231/3/1 232/4/1
f 233/1/1 234/2/1 235/3/1 236/4/1
f 237/1/1 238/2/1 239/3/1 240/4/1
f 241/1/1 242/2/1 243/3/1 244/4/1
f 245/1/1 246/2/1 247/3/1 248/4/1
f 249/1/1 250/2/1 251/3/1 252/4/1
f 253/1/1 254/2/1 255/3/1 256/4/1
f 257/1/1 258/2/1 259/3/1 260/4/1
f 261/1/1 262/2/1 263/3/1 264/4/1
f 265/1/1 266/2/1 267/3/1 268/4/1
f 269/1/1 270/2/1 271/3/1 272/4/1
f 273/1/1 274/2/1 275/3/1 276/4/1
f 277/1/1 278/2/1 279/3/1 280/4/1
f 281/1/1 282/2/1 283/3/1 284/4/1
f 285/1/1 286/2/1 287/3/1 288/4/1
f 289/1/1 290/2/1 291/3/1 292/4/1
f 293/1/1 294/2/1 295/3/1 296/4/1
f 297/1/1 298/2/1 299/3/1 300/4/1
f 301/1/1 302/2/1 303/3/1 304/4/1
f 305/1/1 306/2/1 307/3/1 308/4/1
f 309/1/1 310/2/1 311/3/1 312/4/1
f 313/1/1 314/2/1 315/3/1 316/4/1
f 317/1/1 318/2/1 319/3/1 320/4/1
f 321/1/1 322/2/1 323/3/1 324/4/1
f 325/1/1 326/2/1 327/3/1 328/4/1
f 329/1/1 330/2/1 331/3/1 332/4/1
f 333/1/1 334/2/1 335/3/1 336/4/1
f 337/1/1 338/2/1 339/3/1 340/4/1
f 341/1/1 342/2/1 343/3/1 344/4/1
f 345/5/1 346/6/1 347/7/1 348/8/1
f 349/5/1 350/6/1 351/7/1 352/8/1
f 353/5/1 354/6/1 355/7/1 356/8/1
f 357/5/1 358/6/1 359/7/1 360/8/1
f 361/5/1 362/6/1 363/7/1 364/8/1
f 365/1/1 366/2/1 367/3/1 368/4/1
f 369/1/1 370/2/1 371/3/1 372/4/1
f 373/1/1 374/2/1 375/3/1 376/4/1
f 377/1/1 378/2/1 379/3/1 380/4/1
f 381/1/1 382/2/1 383/3/1 384/4/1
f 385/5/1 386/6/1 387/7/1 388/8/1
f 389/5/1 390/6/1 391/7/1 392/8/1
f 393/5/1 394/6/1 395/7/1 396/8/1
f 397/1/1 398/2/1 399/3/1 400/4/1
f 401/1/1 402/2/1 403/3/1 404/4/1
f 405/1/1 406/2/1 407/3/1 408/4/1
f 409/1/1 410/2/1 411/3/1 412/4/1
f 413/1/1 414/2/1 415/3/1 416/4/1
f 417/1/1 418/2/1 419/3/1 420/4/1
f 421/1/1 422/2/1 423/3/1 424/4/1
f 425/1/1 426/2/1 427/3/1 428/4/1
f 429/1/1 430/2/1 431/3/1 432/4/1
f 433/1/1 434/2/1 435/3/1 436/4/1
f 437/5/1 438/6/1 439/7/1 440/8/1
f 441/5/1 442/6/1 443/7/1 444/8/1
f 445/5/1 446/6/1 447/7/1 448/8/1
f 449/5/1 450/6/1 451/7/1 452/8/1
f 453/5/1 454/6/1 455/7/1 456/8/1
f 457/5/1 458/6/1 459/7/1 460/8/1
f 461/5/1 462/6/1 463/7/1 464/8/1
f 465/5/1 466/6/1 467/7/1 468/8/1
f 469/5/1 470/6/1 471/7/1 472/8/1
f 473/9/1 474/10/1 475/6/1 476/5/1
f 477/9/1 478/10/1 479/6/1 480/5/1
f 481/9/1 482/10/1 483/6/1 484/5/1
f 485/9/1 486/10/1 487/6/1 488/5/1
f 489/9/1 490/10/1 491/6/1 492/5/1
f 493/9/1 494/10/1 495/6/1 496/5/1
f 497/9/1 498/10/1 499/6/1 500/5/1
f 501/9/1 502/10/1 503/6/1 504/5/1
f 505/9/1 506/10/1 507/6/1 508/5/1
f 509/9/1 510/10/1 511/6/1 512/5/1
f 513/9/1 514/10/1 515/6/1 516/5/1
f 517/9/1 518/10/1 519/6/1 520/5/1
f 521/9/1 522/10/1 523/6/1 524/5/1
f 525/9/1 526/10/1 527/6/1 528/5/1
f 529/9/1 530/10/1 531/6/1 532/5/1
f 533/9/1 534/10/1 535/6/1 536/5/1
f 537/9/1 538/10/1 539/6/1 540/5/1
f 541/9/1 542/10/1 543/6/1 544/5/1
f 545/9/1 546/10/1 547/6/1 548/5/1
f 549/9/1 550/10/1 551/6/1 552/5/1
f 553/9/1 554/10/1 555/6/1 556/5/1
f 557/9/1 558/10/1 559/6/1 560/5/1
f 561/9/1 562/10/1 563/6/1 564/5/1
f 565/9/1 566/10/1 567/6/1 568/5/1
f 569/9/1 570/10/1 571/6/1 572/5/1
f 573/9/1 574/10/1 575/6/1 576/5/1
f 577/9/1 578/10/1 579/6/1 580/5/1
f 581/9/1 582/10/1 583/6/1 584/5/1
f 585/9/1 586/10/1 587/6/1 588/5/1
f 589/9/1 590/10/1 591/6/1 592/5/1
f 593/9/1 594/10/1 595/6/1 596/5/1
f 597/9/1 598/10/1 599/6/1 600/5/1
f 601/9/1 602/10/1 603/6/1 604/5/1
f 605/9/1 606/10/1 607/6/1 608/5/1
f 609/9/1 610/10/1 611/6/1 612/5/1
f 613/9/1 614/10/1 615/6/1 616/5/1
f 617/9/1 618/10/1 619/6/1 620/5/1
f 621/9/1 622/10/1 623/6/1 624/5/1
f 625/9/1 626/10/1 627/6/1 628/5/1
f 629/9/1 630/10/1 631/6/1 632/5/1
f 633/9/1 634/10/1 635/6/1 636/5/1
f 637/9/1 638/10/1 639/6/1 640/5/1
f 641/9/1 642/10/1 643/6/1 644/5/1
f 645/9/1 646/10/1 647/6/1 648/5/1
f 649/9/1 650/10/1 651/6/1 652/5/1
f 653/9/1 654/10/1 655/6/1 656/5/1
f 657/9/1 658/10/1 659/6/1 660/5/1
f 661/9/1 662/10/1 663/6/1 664/5/1
f 665/9/1 666/10/1 667/6/1 668/5/1
f 669/9/1 670/10/1 671/6/1 672/5/1
f 673/9/1 674/10/1 675/6/1 676/5/1
f 677/9/1 678/10/1 679/6/1 680/5/1
f 681/9/1 682/10/1 683/6/1 684/5/1
f 685/9/1 686/10/1 687/6/1 688/5/1
f 689/9/1 690/10/1 691/6/1 692/5/1
f 693/9/1 694/10/1 695/6/1 696/5/1
f 697/9/1 698/10/1 699/6/1 700/5/1
f 701/9/1 702/10/1 703/6/1 704/5/1
f 705/9/1 706/10/1 707/6/1 708/5/1
f 709/9/1 710/10/1 711/6/1 712/5/1
f 713/9/1 714/10/1 715/6/1 716/5/1
f 717/9/1 718/10/1 719/6/1 720/5/1
f 721/9/1 722/10/1 723/6/1 724/5/1
f 725/9/1 726/10/1 727/6/1 728/5/1

