# Tiled2Unity generated file. Do not modify by hand.
# Wavefront file for 'Map04_mesh_0001.obj'

# Vertices (Count = 700)
v -990 -198 0
v -1008 -198 0
v -1008 -180 0
v -990 -180 0
v -1008 -198 0
v -1026 -198 0
v -1026 -180 0
v -1008 -180 0
v -1026 -198 0
v -1044 -198 0
v -1044 -180 0
v -1026 -180 0
v -1134 -198 0
v -1152 -198 0
v -1152 -180 0
v -1134 -180 0
v -1152 -198 0
v -1170 -198 0
v -1170 -180 0
v -1152 -180 0
v -1170 -198 0
v -1188 -198 0
v -1188 -180 0
v -1170 -180 0
v -1188 -198 0
v -1206 -198 0
v -1206 -180 0
v -1188 -180 0
v -1206 -198 0
v -1224 -198 0
v -1224 -180 0
v -1206 -180 0
v -1224 -198 0
v -1242 -198 0
v -1242 -180 0
v -1224 -180 0
v -1242 -198 0
v -1260 -198 0
v -1260 -180 0
v -1242 -180 0
v -1260 -198 0
v -1278 -198 0
v -1278 -180 0
v -1260 -180 0
v -1278 -198 0
v -1296 -198 0
v -1296 -180 0
v -1278 -180 0
v -1296 -198 0
v -1314 -198 0
v -1314 -180 0
v -1296 -180 0
v -1314 -198 0
v -1332 -198 0
v -1332 -180 0
v -1314 -180 0
v -1332 -198 0
v -1350 -198 0
v -1350 -180 0
v -1332 -180 0
v -1350 -198 0
v -1368 -198 0
v -1368 -180 0
v -1350 -180 0
v -900 -216 0
v -918 -216 0
v -918 -198 0
v -900 -198 0
v -918 -216 0
v -936 -216 0
v -936 -198 0
v -918 -198 0
v -936 -216 0
v -954 -216 0
v -954 -198 0
v -936 -198 0
v -990 -216 0
v -1008 -216 0
v -1008 -198 0
v -990 -198 0
v -1008 -216 0
v -1026 -216 0
v -1026 -198 0
v -1008 -198 0
v -1026 -216 0
v -1044 -216 0
v -1044 -198 0
v -1026 -198 0
v -1134 -216 0
v -1152 -216 0
v -1152 -198 0
v -1134 -198 0
v -1152 -216 0
v -1170 -216 0
v -1170 -198 0
v -1152 -198 0
v -1170 -216 0
v -1188 -216 0
v -1188 -198 0
v -1170 -198 0
v -1188 -216 0
v -1206 -216 0
v -1206 -198 0
v -1188 -198 0
v -1206 -216 0
v -1224 -216 0
v -1224 -198 0
v -1206 -198 0
v -1224 -216 0
v -1242 -216 0
v -1242 -198 0
v -1224 -198 0
v -1242 -216 0
v -1260 -216 0
v -1260 -198 0
v -1242 -198 0
v -1260 -216 0
v -1278 -216 0
v -1278 -198 0
v -1260 -198 0
v -1278 -216 0
v -1296 -216 0
v -1296 -198 0
v -1278 -198 0
v -1296 -216 0
v -1314 -216 0
v -1314 -198 0
v -1296 -198 0
v -1314 -216 0
v -1332 -216 0
v -1332 -198 0
v -1314 -198 0
v -1332 -216 0
v -1350 -216 0
v -1350 -198 0
v -1332 -198 0
v -1350 -216 0
v -1368 -216 0
v -1368 -198 0
v -1350 -198 0
v -792 -234 0
v -810 -234 0
v -810 -216 0
v -792 -216 0
v -810 -234 0
v -828 -234 0
v -828 -216 0
v -810 -216 0
v -828 -234 0
v -846 -234 0
v -846 -216 0
v -828 -216 0
v -900 -234 0
v -918 -234 0
v -918 -216 0
v -900 -216 0
v -918 -234 0
v -936 -234 0
v -936 -216 0
v -918 -216 0
v -936 -234 0
v -954 -234 0
v -954 -216 0
v -936 -216 0
v -990 -234 0
v -1008 -234 0
v -1008 -216 0
v -990 -216 0
v -1008 -234 0
v -1026 -234 0
v -1026 -216 0
v -1008 -216 0
v -1026 -234 0
v -1044 -234 0
v -1044 -216 0
v -1026 -216 0
v -1134 -234 0
v -1152 -234 0
v -1152 -216 0
v -1134 -216 0
v -1152 -234 0
v -1170 -234 0
v -1170 -216 0
v -1152 -216 0
v -1170 -234 0
v -1188 -234 0
v -1188 -216 0
v -1170 -216 0
v -1188 -234 0
v -1206 -234 0
v -1206 -216 0
v -1188 -216 0
v -1206 -234 0
v -1224 -234 0
v -1224 -216 0
v -1206 -216 0
v -1224 -234 0
v -1242 -234 0
v -1242 -216 0
v -1224 -216 0
v -1242 -234 0
v -1260 -234 0
v -1260 -216 0
v -1242 -216 0
v -1260 -234 0
v -1278 -234 0
v -1278 -216 0
v -1260 -216 0
v -1278 -234 0
v -1296 -234 0
v -1296 -216 0
v -1278 -216 0
v -1296 -234 0
v -1314 -234 0
v -1314 -216 0
v -1296 -216 0
v -1314 -234 0
v -1332 -234 0
v -1332 -216 0
v -1314 -216 0
v -1332 -234 0
v -1350 -234 0
v -1350 -216 0
v -1332 -216 0
v -1350 -234 0
v -1368 -234 0
v -1368 -216 0
v -1350 -216 0
v 0 -252 0
v -18 -252 0
v -18 -234 0
v 0 -234 0
v -18 -252 0
v -36 -252 0
v -36 -234 0
v -18 -234 0
v -36 -252 0
v -54 -252 0
v -54 -234 0
v -36 -234 0
v -54 -252 0
v -72 -252 0
v -72 -234 0
v -54 -234 0
v -72 -252 0
v -90 -252 0
v -90 -234 0
v -72 -234 0
v -90 -252 0
v -108 -252 0
v -108 -234 0
v -90 -234 0
v -108 -252 0
v -126 -252 0
v -126 -234 0
v -108 -234 0
v -126 -252 0
v -144 -252 0
v -144 -234 0
v -126 -234 0
v -144 -252 0
v -162 -252 0
v -162 -234 0
v -144 -234 0
v -162 -252 0
v -180 -252 0
v -180 -234 0
v -162 -234 0
v -180 -252 0
v -198 -252 0
v -198 -234 0
v -180 -234 0
v -198 -252 0
v -216 -252 0
v -216 -234 0
v -198 -234 0
v -216 -252 0
v -234 -252 0
v -234 -234 0
v -216 -234 0
v -234 -252 0
v -252 -252 0
v -252 -234 0
v -234 -234 0
v -252 -252 0
v -270 -252 0
v -270 -234 0
v -252 -234 0
v -270 -252 0
v -288 -252 0
v -288 -234 0
v -270 -234 0
v -288 -252 0
v -306 -252 0
v -306 -234 0
v -288 -234 0
v -306 -252 0
v -324 -252 0
v -324 -234 0
v -306 -234 0
v -324 -252 0
v -342 -252 0
v -342 -234 0
v -324 -234 0
v -342 -252 0
v -360 -252 0
v -360 -234 0
v -342 -234 0
v -360 -252 0
v -378 -252 0
v -378 -234 0
v -360 -234 0
v -378 -252 0
v -396 -252 0
v -396 -234 0
v -378 -234 0
v -396 -252 0
v -414 -252 0
v -414 -234 0
v -396 -234 0
v -414 -252 0
v -432 -252 0
v -432 -234 0
v -414 -234 0
v -522 -252 0
v -540 -252 0
v -540 -234 0
v -522 -234 0
v -540 -252 0
v -558 -252 0
v -558 -234 0
v -540 -234 0
v -558 -252 0
v -576 -252 0
v -576 -234 0
v -558 -234 0
v -576 -252 0
v -594 -252 0
v -594 -234 0
v -576 -234 0
v -594 -252 0
v -612 -252 0
v -612 -234 0
v -594 -234 0
v -612 -252 0
v -630 -252 0
v -630 -234 0
v -612 -234 0
v -630 -252 0
v -648 -252 0
v -648 -234 0
v -630 -234 0
v -648 -252 0
v -666 -252 0
v -666 -234 0
v -648 -234 0
v -666 -252 0
v -684 -252 0
v -684 -234 0
v -666 -234 0
v -684 -252 0
v -702 -252 0
v -702 -234 0
v -684 -234 0
v -702 -252 0
v -720 -252 0
v -720 -234 0
v -702 -234 0
v -720 -252 0
v -738 -252 0
v -738 -234 0
v -720 -234 0
v -738 -252 0
v -756 -252 0
v -756 -234 0
v -738 -234 0
v -792 -252 0
v -810 -252 0
v -810 -234 0
v -792 -234 0
v -810 -252 0
v -828 -252 0
v -828 -234 0
v -810 -234 0
v -828 -252 0
v -846 -252 0
v -846 -234 0
v -828 -234 0
v -900 -252 0
v -918 -252 0
v -918 -234 0
v -900 -234 0
v -918 -252 0
v -936 -252 0
v -936 -234 0
v -918 -234 0
v -936 -252 0
v -954 -252 0
v -954 -234 0
v -936 -234 0
v -990 -252 0
v -1008 -252 0
v -1008 -234 0
v -990 -234 0
v -1008 -252 0
v -1026 -252 0
v -1026 -234 0
v -1008 -234 0
v -1026 -252 0
v -1044 -252 0
v -1044 -234 0
v -1026 -234 0
v -1134 -252 0
v -1152 -252 0
v -1152 -234 0
v -1134 -234 0
v -1152 -252 0
v -1170 -252 0
v -1170 -234 0
v -1152 -234 0
v -1170 -252 0
v -1188 -252 0
v -1188 -234 0
v -1170 -234 0
v -1188 -252 0
v -1206 -252 0
v -1206 -234 0
v -1188 -234 0
v -1206 -252 0
v -1224 -252 0
v -1224 -234 0
v -1206 -234 0
v -1224 -252 0
v -1242 -252 0
v -1242 -234 0
v -1224 -234 0
v -1242 -252 0
v -1260 -252 0
v -1260 -234 0
v -1242 -234 0
v -1260 -252 0
v -1278 -252 0
v -1278 -234 0
v -1260 -234 0
v -1278 -252 0
v -1296 -252 0
v -1296 -234 0
v -1278 -234 0
v -1296 -252 0
v -1314 -252 0
v -1314 -234 0
v -1296 -234 0
v -1314 -252 0
v -1332 -252 0
v -1332 -234 0
v -1314 -234 0
v -1332 -252 0
v -1350 -252 0
v -1350 -234 0
v -1332 -234 0
v -1350 -252 0
v -1368 -252 0
v -1368 -234 0
v -1350 -234 0
v 0 -270 0
v -18 -270 0
v -18 -252 0
v 0 -252 0
v -18 -270 0
v -36 -270 0
v -36 -252 0
v -18 -252 0
v -36 -270 0
v -54 -270 0
v -54 -252 0
v -36 -252 0
v -54 -270 0
v -72 -270 0
v -72 -252 0
v -54 -252 0
v -72 -270 0
v -90 -270 0
v -90 -252 0
v -72 -252 0
v -90 -270 0
v -108 -270 0
v -108 -252 0
v -90 -252 0
v -108 -270 0
v -126 -270 0
v -126 -252 0
v -108 -252 0
v -126 -270 0
v -144 -270 0
v -144 -252 0
v -126 -252 0
v -144 -270 0
v -162 -270 0
v -162 -252 0
v -144 -252 0
v -162 -270 0
v -180 -270 0
v -180 -252 0
v -162 -252 0
v -180 -270 0
v -198 -270 0
v -198 -252 0
v -180 -252 0
v -198 -270 0
v -216 -270 0
v -216 -252 0
v -198 -252 0
v -216 -270 0
v -234 -270 0
v -234 -252 0
v -216 -252 0
v -234 -270 0
v -252 -270 0
v -252 -252 0
v -234 -252 0
v -252 -270 0
v -270 -270 0
v -270 -252 0
v -252 -252 0
v -270 -270 0
v -288 -270 0
v -288 -252 0
v -270 -252 0
v -288 -270 0
v -306 -270 0
v -306 -252 0
v -288 -252 0
v -306 -270 0
v -324 -270 0
v -324 -252 0
v -306 -252 0
v -324 -270 0
v -342 -270 0
v -342 -252 0
v -324 -252 0
v -342 -270 0
v -360 -270 0
v -360 -252 0
v -342 -252 0
v -360 -270 0
v -378 -270 0
v -378 -252 0
v -360 -252 0
v -378 -270 0
v -396 -270 0
v -396 -252 0
v -378 -252 0
v -396 -270 0
v -414 -270 0
v -414 -252 0
v -396 -252 0
v -414 -270 0
v -432 -270 0
v -432 -252 0
v -414 -252 0
v -522 -270 0
v -540 -270 0
v -540 -252 0
v -522 -252 0
v -540 -270 0
v -558 -270 0
v -558 -252 0
v -540 -252 0
v -558 -270 0
v -576 -270 0
v -576 -252 0
v -558 -252 0
v -576 -270 0
v -594 -270 0
v -594 -252 0
v -576 -252 0
v -594 -270 0
v -612 -270 0
v -612 -252 0
v -594 -252 0
v -612 -270 0
v -630 -270 0
v -630 -252 0
v -612 -252 0
v -630 -270 0
v -648 -270 0
v -648 -252 0
v -630 -252 0
v -648 -270 0
v -666 -270 0
v -666 -252 0
v -648 -252 0
v -666 -270 0
v -684 -270 0
v -684 -252 0
v -666 -252 0
v -684 -270 0
v -702 -270 0
v -702 -252 0
v -684 -252 0
v -702 -270 0
v -720 -270 0
v -720 -252 0
v -702 -252 0
v -720 -270 0
v -738 -270 0
v -738 -252 0
v -720 -252 0
v -738 -270 0
v -756 -270 0
v -756 -252 0
v -738 -252 0
v -792 -270 0
v -810 -270 0
v -810 -252 0
v -792 -252 0
v -810 -270 0
v -828 -270 0
v -828 -252 0
v -810 -252 0
v -828 -270 0
v -846 -270 0
v -846 -252 0
v -828 -252 0
v -900 -270 0
v -918 -270 0
v -918 -252 0
v -900 -252 0
v -918 -270 0
v -936 -270 0
v -936 -252 0
v -918 -252 0
v -936 -270 0
v -954 -270 0
v -954 -252 0
v -936 -252 0
v -990 -270 0
v -1008 -270 0
v -1008 -252 0
v -990 -252 0
v -1008 -270 0
v -1026 -270 0
v -1026 -252 0
v -1008 -252 0
v -1026 -270 0
v -1044 -270 0
v -1044 -252 0
v -1026 -252 0
v -1134 -270 0
v -1152 -270 0
v -1152 -252 0
v -1134 -252 0
v -1152 -270 0
v -1170 -270 0
v -1170 -252 0
v -1152 -252 0
v -1170 -270 0
v -1188 -270 0
v -1188 -252 0
v -1170 -252 0
v -1188 -270 0
v -1206 -270 0
v -1206 -252 0
v -1188 -252 0
v -1206 -270 0
v -1224 -270 0
v -1224 -252 0
v -1206 -252 0
v -1224 -270 0
v -1242 -270 0
v -1242 -252 0
v -1224 -252 0
v -1242 -270 0
v -1260 -270 0
v -1260 -252 0
v -1242 -252 0
v -1260 -270 0
v -1278 -270 0
v -1278 -252 0
v -1260 -252 0
v -1278 -270 0
v -1296 -270 0
v -1296 -252 0
v -1278 -252 0
v -1296 -270 0
v -1314 -270 0
v -1314 -252 0
v -1296 -252 0
v -1314 -270 0
v -1332 -270 0
v -1332 -252 0
v -1314 -252 0
v -1332 -270 0
v -1350 -270 0
v -1350 -252 0
v -1332 -252 0
v -1350 -270 0
v -1368 -270 0
v -1368 -252 0
v -1350 -252 0

# Texture cooridinates (Count = 16)
vt 0.05 0.7777778
vt 0.1 0.7777778
vt 0.1 0.8888889
vt 0.05 0.8888889
vt 0.15 0.7777778
vt 0.15 0.8888889
vt 0.2 0.7777778
vt 0.2 0.8888889
vt 0.05 0.2222222
vt 0.1 0.2222222
vt 0.1 0.3333333
vt 0.05 0.3333333
vt 0.15 0.2222222
vt 0.15 0.3333333
vt 0.2 0.2222222
vt 0.2 0.3333333

# Normal
vn 0 0 -1

# Mesh description
g Map04_mesh_0001

# Faces
f 1/1/1 2/2/1 3/3/1 4/4/1
f 5/2/1 6/5/1 7/6/1 8/3/1
f 9/5/1 10/7/1 11/8/1 12/6/1
f 13/1/1 14/2/1 15/3/1 16/4/1
f 17/2/1 18/5/1 19/6/1 20/3/1
f 21/2/1 22/5/1 23/6/1 24/3/1
f 25/2/1 26/5/1 27/6/1 28/3/1
f 29/2/1 30/5/1 31/6/1 32/3/1
f 33/2/1 34/5/1 35/6/1 36/3/1
f 37/2/1 38/5/1 39/6/1 40/3/1
f 41/2/1 42/5/1 43/6/1 44/3/1
f 45/2/1 46/5/1 47/6/1 48/3/1
f 49/2/1 50/5/1 51/6/1 52/3/1
f 53/2/1 54/5/1 55/6/1 56/3/1
f 57/2/1 58/5/1 59/6/1 60/3/1
f 61/5/1 62/7/1 63/8/1 64/6/1
f 65/1/1 66/2/1 67/3/1 68/4/1
f 69/2/1 70/5/1 71/6/1 72/3/1
f 73/5/1 74/7/1 75/8/1 76/6/1
f 77/9/1 78/10/1 79/11/1 80/12/1
f 81/10/1 82/13/1 83/14/1 84/11/1
f 85/13/1 86/15/1 87/16/1 88/14/1
f 89/9/1 90/10/1 91/11/1 92/12/1
f 93/10/1 94/13/1 95/14/1 96/11/1
f 97/10/1 98/13/1 99/14/1 100/11/1
f 101/10/1 102/13/1 103/14/1 104/11/1
f 105/10/1 106/13/1 107/14/1 108/11/1
f 109/10/1 110/13/1 111/14/1 112/11/1
f 113/10/1 114/13/1 115/14/1 116/11/1
f 117/10/1 118/13/1 119/14/1 120/11/1
f 121/10/1 122/13/1 123/14/1 124/11/1
f 125/10/1 126/13/1 127/14/1 128/11/1
f 129/10/1 130/13/1 131/14/1 132/11/1
f 133/10/1 134/13/1 135/14/1 136/11/1
f 137/13/1 138/15/1 139/16/1 140/14/1
f 141/1/1 142/2/1 143/3/1 144/4/1
f 145/2/1 146/5/1 147/6/1 148/3/1
f 149/5/1 150/7/1 151/8/1 152/6/1
f 153/9/1 154/10/1 155/11/1 156/12/1
f 157/10/1 158/13/1 159/14/1 160/11/1
f 161/13/1 162/15/1 163/16/1 164/14/1
f 165/9/1 166/10/1 167/11/1 168/12/1
f 169/10/1 170/13/1 171/14/1 172/11/1
f 173/13/1 174/15/1 175/16/1 176/14/1
f 177/9/1 178/10/1 179/11/1 180/12/1
f 181/10/1 182/13/1 183/14/1 184/11/1
f 185/10/1 186/13/1 187/14/1 188/11/1
f 189/10/1 190/13/1 191/14/1 192/11/1
f 193/10/1 194/13/1 195/14/1 196/11/1
f 197/10/1 198/13/1 199/14/1 200/11/1
f 201/10/1 202/13/1 203/14/1 204/11/1
f 205/10/1 206/13/1 207/14/1 208/11/1
f 209/10/1 210/13/1 211/14/1 212/11/1
f 213/10/1 214/13/1 215/14/1 216/11/1
f 217/10/1 218/13/1 219/14/1 220/11/1
f 221/10/1 222/13/1 223/14/1 224/11/1
f 225/13/1 226/15/1 227/16/1 228/14/1
f 229/2/1 230/5/1 231/6/1 232/3/1
f 233/2/1 234/5/1 235/6/1 236/3/1
f 237/2/1 238/5/1 239/6/1 240/3/1
f 241/2/1 242/5/1 243/6/1 244/3/1
f 245/2/1 246/5/1 247/6/1 248/3/1
f 249/2/1 250/5/1 251/6/1 252/3/1
f 253/2/1 254/5/1 255/6/1 256/3/1
f 257/2/1 258/5/1 259/6/1 260/3/1
f 261/2/1 262/5/1 263/6/1 264/3/1
f 265/2/1 266/5/1 267/6/1 268/3/1
f 269/2/1 270/5/1 271/6/1 272/3/1
f 273/2/1 274/5/1 275/6/1 276/3/1
f 277/2/1 278/5/1 279/6/1 280/3/1
f 281/2/1 282/5/1 283/6/1 284/3/1
f 285/2/1 286/5/1 287/6/1 288/3/1
f 289/2/1 290/5/1 291/6/1 292/3/1
f 293/2/1 294/5/1 295/6/1 296/3/1
f 297/2/1 298/5/1 299/6/1 300/3/1
f 301/2/1 302/5/1 303/6/1 304/3/1
f 305/2/1 306/5/1 307/6/1 308/3/1
f 309/2/1 310/5/1 311/6/1 312/3/1
f 313/2/1 314/5/1 315/6/1 316/3/1
f 317/2/1 318/5/1 319/6/1 320/3/1
f 321/5/1 322/7/1 323/8/1 324/6/1
f 325/1/1 326/2/1 327/3/1 328/4/1
f 329/2/1 330/5/1 331/6/1 332/3/1
f 333/2/1 334/5/1 335/6/1 336/3/1
f 337/2/1 338/5/1 339/6/1 340/3/1
f 341/2/1 342/5/1 343/6/1 344/3/1
f 345/2/1 346/5/1 347/6/1 348/3/1
f 349/2/1 350/5/1 351/6/1 352/3/1
f 353/2/1 354/5/1 355/6/1 356/3/1
f 357/2/1 358/5/1 359/6/1 360/3/1
f 361/2/1 362/5/1 363/6/1 364/3/1
f 365/2/1 366/5/1 367/6/1 368/3/1
f 369/2/1 370/5/1 371/6/1 372/3/1
f 373/5/1 374/7/1 375/8/1 376/6/1
f 377/9/1 378/10/1 379/11/1 380/12/1
f 381/10/1 382/13/1 383/14/1 384/11/1
f 385/13/1 386/15/1 387/16/1 388/14/1
f 389/9/1 390/10/1 391/11/1 392/12/1
f 393/10/1 394/13/1 395/14/1 396/11/1
f 397/13/1 398/15/1 399/16/1 400/14/1
f 401/9/1 402/10/1 403/11/1 404/12/1
f 405/10/1 406/13/1 407/14/1 408/11/1
f 409/13/1 410/15/1 411/16/1 412/14/1
f 413/9/1 414/10/1 415/11/1 416/12/1
f 417/10/1 418/13/1 419/14/1 420/11/1
f 421/10/1 422/13/1 423/14/1 424/11/1
f 425/10/1 426/13/1 427/14/1 428/11/1
f 429/10/1 430/13/1 431/14/1 432/11/1
f 433/10/1 434/13/1 435/14/1 436/11/1
f 437/10/1 438/13/1 439/14/1 440/11/1
f 441/10/1 442/13/1 443/14/1 444/11/1
f 445/10/1 446/13/1 447/14/1 448/11/1
f 449/10/1 450/13/1 451/14/1 452/11/1
f 453/10/1 454/13/1 455/14/1 456/11/1
f 457/10/1 458/13/1 459/14/1 460/11/1
f 461/13/1 462/15/1 463/16/1 464/14/1
f 465/10/1 466/13/1 467/14/1 468/11/1
f 469/10/1 470/13/1 471/14/1 472/11/1
f 473/10/1 474/13/1 475/14/1 476/11/1
f 477/10/1 478/13/1 479/14/1 480/11/1
f 481/10/1 482/13/1 483/14/1 484/11/1
f 485/10/1 486/13/1 487/14/1 488/11/1
f 489/10/1 490/13/1 491/14/1 492/11/1
f 493/10/1 494/13/1 495/14/1 496/11/1
f 497/10/1 498/13/1 499/14/1 500/11/1
f 501/10/1 502/13/1 503/14/1 504/11/1
f 505/10/1 506/13/1 507/14/1 508/11/1
f 509/10/1 510/13/1 511/14/1 512/11/1
f 513/10/1 514/13/1 515/14/1 516/11/1
f 517/10/1 518/13/1 519/14/1 520/11/1
f 521/10/1 522/13/1 523/14/1 524/11/1
f 525/10/1 526/13/1 527/14/1 528/11/1
f 529/10/1 530/13/1 531/14/1 532/11/1
f 533/10/1 534/13/1 535/14/1 536/11/1
f 537/10/1 538/13/1 539/14/1 540/11/1
f 541/10/1 542/13/1 543/14/1 544/11/1
f 545/10/1 546/13/1 547/14/1 548/11/1
f 549/10/1 550/13/1 551/14/1 552/11/1
f 553/10/1 554/13/1 555/14/1 556/11/1
f 557/13/1 558/15/1 559/16/1 560/14/1
f 561/9/1 562/10/1 563/11/1 564/12/1
f 565/10/1 566/13/1 567/14/1 568/11/1
f 569/10/1 570/13/1 571/14/1 572/11/1
f 573/10/1 574/13/1 575/14/1 576/11/1
f 577/10/1 578/13/1 579/14/1 580/11/1
f 581/10/1 582/13/1 583/14/1 584/11/1
f 585/10/1 586/13/1 587/14/1 588/11/1
f 589/10/1 590/13/1 591/14/1 592/11/1
f 593/10/1 594/13/1 595/14/1 596/11/1
f 597/10/1 598/13/1 599/14/1 600/11/1
f 601/10/1 602/13/1 603/14/1 604/11/1
f 605/10/1 606/13/1 607/14/1 608/11/1
f 609/13/1 610/15/1 611/16/1 612/14/1
f 613/9/1 614/10/1 615/11/1 616/12/1
f 617/10/1 618/13/1 619/14/1 620/11/1
f 621/13/1 622/15/1 623/16/1 624/14/1
f 625/9/1 626/10/1 627/11/1 628/12/1
f 629/10/1 630/13/1 631/14/1 632/11/1
f 633/13/1 634/15/1 635/16/1 636/14/1
f 637/9/1 638/10/1 639/11/1 640/12/1
f 641/10/1 642/13/1 643/14/1 644/11/1
f 645/13/1 646/15/1 647/16/1 648/14/1
f 649/9/1 650/10/1 651/11/1 652/12/1
f 653/10/1 654/13/1 655/14/1 656/11/1
f 657/10/1 658/13/1 659/14/1 660/11/1
f 661/10/1 662/13/1 663/14/1 664/11/1
f 665/10/1 666/13/1 667/14/1 668/11/1
f 669/10/1 670/13/1 671/14/1 672/11/1
f 673/10/1 674/13/1 675/14/1 676/11/1
f 677/10/1 678/13/1 679/14/1 680/11/1
f 681/10/1 682/13/1 683/14/1 684/11/1
f 685/10/1 686/13/1 687/14/1 688/11/1
f 689/10/1 690/13/1 691/14/1 692/11/1
f 693/10/1 694/13/1 695/14/1 696/11/1
f 697/13/1 698/15/1 699/16/1 700/14/1

