# Tiled2Unity generated file. Do not modify by hand.
# Wavefront file for 'Map02a_mesh_0001.obj'

# Vertices (Count = 224)
v -36 -36 0
v -54 -36 0
v -54 -18 0
v -36 -18 0
v -54 -36 0
v -72 -36 0
v -72 -18 0
v -54 -18 0
v -72 -36 0
v -90 -36 0
v -90 -18 0
v -72 -18 0
v -90 -36 0
v -108 -36 0
v -108 -18 0
v -90 -18 0
v -108 -36 0
v -126 -36 0
v -126 -18 0
v -108 -18 0
v -126 -36 0
v -144 -36 0
v -144 -18 0
v -126 -18 0
v -36 -54 0
v -54 -54 0
v -54 -36 0
v -36 -36 0
v -54 -54 0
v -72 -54 0
v -72 -36 0
v -54 -36 0
v -108 -54 0
v -126 -54 0
v -126 -36 0
v -108 -36 0
v -126 -54 0
v -144 -54 0
v -144 -36 0
v -126 -36 0
v -36 -72 0
v -54 -72 0
v -54 -54 0
v -36 -54 0
v -126 -72 0
v -144 -72 0
v -144 -54 0
v -126 -54 0
v -36 -90 0
v -54 -90 0
v -54 -72 0
v -36 -72 0
v -126 -90 0
v -144 -90 0
v -144 -72 0
v -126 -72 0
v -36 -108 0
v -54 -108 0
v -54 -90 0
v -36 -90 0
v -54 -108 0
v -72 -108 0
v -72 -90 0
v -54 -90 0
v -72 -108 0
v -90 -108 0
v -90 -90 0
v -72 -90 0
v -90 -108 0
v -108 -108 0
v -108 -90 0
v -90 -90 0
v -108 -108 0
v -126 -108 0
v -126 -90 0
v -108 -90 0
v -126 -108 0
v -144 -108 0
v -144 -90 0
v -126 -90 0
v -306 -180 0
v -324 -180 0
v -324 -162 0
v -306 -162 0
v -324 -180 0
v -342 -180 0
v -342 -162 0
v -324 -162 0
v -342 -180 0
v -360 -180 0
v -360 -162 0
v -342 -162 0
v -360 -180 0
v -378 -180 0
v -378 -162 0
v -360 -162 0
v -378 -180 0
v -396 -180 0
v -396 -162 0
v -378 -162 0
v -396 -180 0
v -414 -180 0
v -414 -162 0
v -396 -162 0
v -306 -198 0
v -324 -198 0
v -324 -180 0
v -306 -180 0
v -396 -198 0
v -414 -198 0
v -414 -180 0
v -396 -180 0
v -306 -216 0
v -324 -216 0
v -324 -198 0
v -306 -198 0
v -396 -216 0
v -414 -216 0
v -414 -198 0
v -396 -198 0
v -306 -234 0
v -324 -234 0
v -324 -216 0
v -306 -216 0
v -396 -234 0
v -414 -234 0
v -414 -216 0
v -396 -216 0
v -36 -252 0
v -54 -252 0
v -54 -234 0
v -36 -234 0
v -54 -252 0
v -72 -252 0
v -72 -234 0
v -54 -234 0
v -72 -252 0
v -90 -252 0
v -90 -234 0
v -72 -234 0
v -90 -252 0
v -108 -252 0
v -108 -234 0
v -90 -234 0
v -108 -252 0
v -126 -252 0
v -126 -234 0
v -108 -234 0
v -126 -252 0
v -144 -252 0
v -144 -234 0
v -126 -234 0
v -306 -252 0
v -324 -252 0
v -324 -234 0
v -306 -234 0
v -324 -252 0
v -342 -252 0
v -342 -234 0
v -324 -234 0
v -342 -252 0
v -360 -252 0
v -360 -234 0
v -342 -234 0
v -360 -252 0
v -378 -252 0
v -378 -234 0
v -360 -234 0
v -378 -252 0
v -396 -252 0
v -396 -234 0
v -378 -234 0
v -396 -252 0
v -414 -252 0
v -414 -234 0
v -396 -234 0
v -36 -270 0
v -54 -270 0
v -54 -252 0
v -36 -252 0
v -54 -270 0
v -72 -270 0
v -72 -252 0
v -54 -252 0
v -72 -270 0
v -90 -270 0
v -90 -252 0
v -72 -252 0
v -90 -270 0
v -108 -270 0
v -108 -252 0
v -90 -252 0
v -108 -270 0
v -126 -270 0
v -126 -252 0
v -108 -252 0
v -126 -270 0
v -144 -270 0
v -144 -252 0
v -126 -252 0
v -306 -270 0
v -324 -270 0
v -324 -252 0
v -306 -252 0
v -324 -270 0
v -342 -270 0
v -342 -252 0
v -324 -252 0
v -342 -270 0
v -360 -270 0
v -360 -252 0
v -342 -252 0
v -360 -270 0
v -378 -270 0
v -378 -252 0
v -360 -252 0
v -378 -270 0
v -396 -270 0
v -396 -252 0
v -378 -252 0
v -396 -270 0
v -414 -270 0
v -414 -252 0
v -396 -252 0

# Texture cooridinates (Count = 12)
vt 0.35 0.6666666
vt 0.4 0.6666666
vt 0.4 0.7777778
vt 0.35 0.7777778
vt 0.7 0.7777778
vt 0.75 0.7777778
vt 0.75 0.8888889
vt 0.7 0.8888889
vt 0.7 0.6666666
vt 0.75 0.6666666
vt 0.7 0.5555556
vt 0.75 0.5555556

# Normal
vn 0 0 -1

# Mesh description
g Map02a_mesh_0001

# Faces
f 1/1/1 2/2/1 3/3/1 4/4/1
f 5/1/1 6/2/1 7/3/1 8/4/1
f 9/1/1 10/2/1 11/3/1 12/4/1
f 13/1/1 14/2/1 15/3/1 16/4/1
f 17/1/1 18/2/1 19/3/1 20/4/1
f 21/5/1 22/6/1 23/7/1 24/8/1
f 25/1/1 26/2/1 27/3/1 28/4/1
f 29/1/1 30/2/1 31/3/1 32/4/1
f 33/1/1 34/2/1 35/3/1 36/4/1
f 37/9/1 38/10/1 39/6/1 40/5/1
f 41/1/1 42/2/1 43/3/1 44/4/1
f 45/9/1 46/10/1 47/6/1 48/5/1
f 49/1/1 50/2/1 51/3/1 52/4/1
f 53/9/1 54/10/1 55/6/1 56/5/1
f 57/1/1 58/2/1 59/3/1 60/4/1
f 61/1/1 62/2/1 63/3/1 64/4/1
f 65/1/1 66/2/1 67/3/1 68/4/1
f 69/1/1 70/2/1 71/3/1 72/4/1
f 73/1/1 74/2/1 75/3/1 76/4/1
f 77/11/1 78/12/1 79/10/1 80/9/1
f 81/1/1 82/2/1 83/3/1 84/4/1
f 85/1/1 86/2/1 87/3/1 88/4/1
f 89/1/1 90/2/1 91/3/1 92/4/1
f 93/1/1 94/2/1 95/3/1 96/4/1
f 97/1/1 98/2/1 99/3/1 100/4/1
f 101/1/1 102/2/1 103/3/1 104/4/1
f 105/1/1 106/2/1 107/3/1 108/4/1
f 109/1/1 110/2/1 111/3/1 112/4/1
f 113/1/1 114/2/1 115/3/1 116/4/1
f 117/1/1 118/2/1 119/3/1 120/4/1
f 121/1/1 122/2/1 123/3/1 124/4/1
f 125/1/1 126/2/1 127/3/1 128/4/1
f 129/1/1 130/2/1 131/3/1 132/4/1
f 133/1/1 134/2/1 135/3/1 136/4/1
f 137/1/1 138/2/1 139/3/1 140/4/1
f 141/1/1 142/2/1 143/3/1 144/4/1
f 145/1/1 146/2/1 147/3/1 148/4/1
f 149/1/1 150/2/1 151/3/1 152/4/1
f 153/1/1 154/2/1 155/3/1 156/4/1
f 157/1/1 158/2/1 159/3/1 160/4/1
f 161/1/1 162/2/1 163/3/1 164/4/1
f 165/1/1 166/2/1 167/3/1 168/4/1
f 169/1/1 170/2/1 171/3/1 172/4/1
f 173/1/1 174/2/1 175/3/1 176/4/1
f 177/1/1 178/2/1 179/3/1 180/4/1
f 181/1/1 182/2/1 183/3/1 184/4/1
f 185/1/1 186/2/1 187/3/1 188/4/1
f 189/1/1 190/2/1 191/3/1 192/4/1
f 193/1/1 194/2/1 195/3/1 196/4/1
f 197/1/1 198/2/1 199/3/1 200/4/1
f 201/1/1 202/2/1 203/3/1 204/4/1
f 205/1/1 206/2/1 207/3/1 208/4/1
f 209/1/1 210/2/1 211/3/1 212/4/1
f 213/1/1 214/2/1 215/3/1 216/4/1
f 217/1/1 218/2/1 219/3/1 220/4/1
f 221/1/1 222/2/1 223/3/1 224/4/1

